# xmcd
#
# Track frame offsets:
#	150
#	17959
#	27975
#
# Disc length: 671 seconds
#
# Revision: 1
# Processed by: cddbd v1.5PL3 Copyright (c) Steve Scherf et al.
# Submitted via: CDex 1.50Beta5
#
DISCID=1d029d03
DTITLE=Chappie - Welcoming Morning
DYEAR=1999
DGENRE=Pop
TTITLE0=Welcoming Morning
TTITLE1=Pretty Tea Time
TTITLE2=その辺に在るだろう
EXTD=
EXTT0=
EXTT1=
EXTT2=
PLAYORDER=
